<svg width="60" height="60" viewBox="0 0 60 60" fill="none" xmlns="http://www.w3.org/2000/svg">
<circle cx="30" cy="30" r="30" fill="#FFBB25"/>
<path d="M38.8965 42H22.127V39.6621L30.9863 29.8184C32.2988 28.3301 33.2012 27.123 33.6934 26.1973C34.1973 25.2598 34.4492 24.293 34.4492 23.2969C34.4492 21.9609 34.0449 20.8652 33.2363 20.0098C32.4277 19.1543 31.3496 18.7266 30.002 18.7266C28.3848 18.7266 27.125 19.1895 26.2227 20.1152C25.332 21.0293 24.8867 22.3066 24.8867 23.9473H21.6348C21.6348 21.5918 22.3906 19.6875 23.9023 18.2344C25.4258 16.7812 27.459 16.0547 30.002 16.0547C32.3809 16.0547 34.2617 16.6816 35.6445 17.9355C37.0273 19.1777 37.7188 20.8359 37.7188 22.9102C37.7188 25.4297 36.1133 28.4297 32.9023 31.9102L26.0469 39.3457H38.8965V42Z" fill="white"/>
</svg>
