<svg width="60" height="60" viewBox="0 0 60 60" fill="none" xmlns="http://www.w3.org/2000/svg">
<circle cx="30" cy="30" r="30" fill="#FFBB25"/>
<path d="M26.8555 27.6211H29.2988C30.834 27.5977 32.041 27.1934 32.9199 26.4082C33.7988 25.623 34.2383 24.5625 34.2383 23.2266C34.2383 20.2266 32.7441 18.7266 29.7559 18.7266C28.3496 18.7266 27.2246 19.1309 26.3809 19.9395C25.5488 20.7363 25.1328 21.7969 25.1328 23.1211H21.8809C21.8809 21.0938 22.6191 19.4121 24.0957 18.0762C25.584 16.7285 27.4707 16.0547 29.7559 16.0547C32.1699 16.0547 34.0625 16.6934 35.4336 17.9707C36.8047 19.248 37.4902 21.0234 37.4902 23.2969C37.4902 24.4102 37.127 25.4883 36.4004 26.5312C35.6855 27.5742 34.707 28.3535 33.4648 28.8691C34.8711 29.3145 35.9551 30.0527 36.7168 31.084C37.4902 32.1152 37.877 33.375 37.877 34.8633C37.877 37.1602 37.127 38.9824 35.627 40.3301C34.127 41.6777 32.1758 42.3516 29.7734 42.3516C27.3711 42.3516 25.4141 41.7012 23.9023 40.4004C22.4023 39.0996 21.6523 37.3828 21.6523 35.25H24.9219C24.9219 36.5977 25.3613 37.6758 26.2402 38.4844C27.1191 39.293 28.2969 39.6973 29.7734 39.6973C31.3438 39.6973 32.5449 39.2871 33.377 38.4668C34.209 37.6465 34.625 36.4688 34.625 34.9336C34.625 33.4453 34.168 32.3027 33.2539 31.5059C32.3398 30.709 31.0215 30.2988 29.2988 30.2754H26.8555V27.6211Z" fill="white"/>
</svg>
