<svg width="60" height="60" viewBox="0 0 60 60" fill="none" xmlns="http://www.w3.org/2000/svg">
<g clip-path="url(#clip0)">
<path d="M30 60C46.5685 60 60 46.5685 60 30C60 13.4315 46.5685 0 30 0C13.4315 0 0 13.4315 0 30C0 46.5685 13.4315 60 30 60Z" fill="#75B73B"/>
<path d="M42.2158 17.7925C40.4764 17.3575 37.9184 15.8552 36.2627 15.2529C29.798 13.2327 21.1111 14.8489 18.6869 22.3237C18.4848 22.5257 18.0808 22.5257 17.8787 22.5257C13.0302 28.1822 16.2626 35.0509 15.8586 41.3136C15.7206 43.5213 14.5598 45.4734 13.0659 47.1247L25.638 59.6836C27.0623 59.8911 28.5182 60.0004 30 60.0004C44.8168 60.0004 57.1233 49.2584 59.5602 35.1378L42.2158 17.7925Z" fill="#52891D"/>
<path d="M29.1605 12.7085C20.0165 13.1435 12.8007 20.7588 12.8282 29.9129C12.8367 32.701 13.5098 35.3327 14.6974 37.6584L12.8743 46.5077C12.7757 46.9866 13.2075 47.4057 13.683 47.293L22.3543 45.2387C24.5821 46.3486 27.0844 46.9894 29.7326 47.0298C39.0787 47.1727 46.8714 39.7519 47.1631 30.4092C47.4751 20.3946 39.2098 12.2298 29.1605 12.7085ZM39.5074 39.3674C36.968 41.9067 33.5914 43.3053 30 43.3053C27.8971 43.3053 25.8836 42.8334 24.0157 41.9031L22.8084 41.3014L17.4916 42.5609L18.6106 37.1285L18.0159 35.9633C17.046 34.0642 16.5543 32.0108 16.5543 29.8597C16.5543 26.2682 17.953 22.8919 20.4923 20.3523C23.009 17.8353 26.4406 16.4143 30.0002 16.4143C33.5913 16.4143 36.9679 17.813 39.5073 20.3523C42.0466 22.8916 43.4452 26.2683 43.4452 29.8594C43.4455 33.4191 42.0242 36.8505 39.5074 39.3674Z" fill="white"/>
<path d="M38.3338 33.5833L35.0076 32.6283C34.5706 32.503 34.0995 32.6271 33.7808 32.9517L32.9673 33.7803C32.6244 34.1299 32.1041 34.2421 31.6501 34.0585C30.0766 33.4217 26.7667 30.4786 25.9219 29.007C25.6776 28.5823 25.7181 28.0517 26.0176 27.6638L26.7275 26.7452C27.0057 26.3854 27.0643 25.9018 26.8805 25.4857L25.4811 22.3208C25.146 21.5628 24.1773 21.342 23.5444 21.8773C22.6161 22.6626 21.5147 23.8554 21.381 25.1773C21.1448 27.5078 22.1444 30.4453 25.9234 33.9728C30.2895 38.0483 33.786 38.5863 36.0628 38.035C37.3541 37.7224 38.3861 36.4688 39.0369 35.4421C39.4812 34.7417 39.1301 33.8121 38.3338 33.5833Z" fill="white"/>
<path d="M41.7192 17.3096L39.1149 19.9789C39.2475 20.1013 39.3794 20.2245 39.5076 20.3528C42.0471 22.8921 43.4456 26.2688 43.4456 29.8599C43.4456 33.4195 42.0244 36.8508 39.5076 39.3678C36.9683 41.9071 33.5917 43.3057 30.0002 43.3057C27.8974 43.3057 25.884 42.8338 24.0159 41.9035L22.8087 41.3018L17.4919 42.5613L17.6018 42.0277L12.8939 46.8525C12.9977 47.1646 13.3281 47.377 13.683 47.2929L22.3543 45.2386C24.5822 46.3485 27.0845 46.9893 29.7327 47.0297C39.0787 47.1726 46.8717 39.7518 47.1632 30.4091C47.3243 25.2372 45.1976 20.5588 41.7192 17.3096Z" fill="#D1D1D1"/>
<path d="M38.3338 33.5841L35.0075 32.6291C34.5705 32.5039 34.0994 32.628 33.7808 32.9526L32.9673 33.7811C32.6244 34.1308 32.1041 34.2429 31.6501 34.0593C30.7412 33.6914 29.2535 32.554 27.9956 31.3752L25.6833 33.7454C25.7626 33.8213 25.8417 33.8971 25.9235 33.9736C30.2896 38.0492 33.7861 38.5872 36.0629 38.0358C37.3542 37.7233 38.3862 36.4696 39.037 35.4429C39.4812 34.7425 39.1301 33.813 38.3338 33.5841Z" fill="#D1D1D1"/>
</g>
<defs>
<clipPath id="clip0">
<rect width="60" height="60" fill="white"/>
</clipPath>
</defs>
</svg>
